<svg id="Layer_1" data-name="Layer 1" xmlns="http://www.w3.org/2000/svg" viewBox="0 0 500 500"><title>Dumbarton Oaks_final logos</title><path d="M37.51,212.13c8,0,13.63,4.16,13.63,12.63,0,8.15-4.88,13.92-13.71,13.92H25c0-1.49.52-1.81,3.51-2.34V214.47c-3-.52-3.51-.84-3.51-2.34Zm-5.37,2.18v21c0,.85.32,1.17,1.17,1.17h3.43c7.67,0,10.37-4.6,10.37-11.62,0-6.13-3.11-10.57-10.33-10.57Z"/><path d="M82.13,214.39a23.7,23.7,0,0,1-4-.8v-1.46H88.59c0,1.46-.57,1.78-3.64,2.3l0,13.72c0,6.66-4,11-10.28,11-6.94,0-11-3.11-11-11V214.43c-3.07-.52-3.63-.84-3.63-2.3h11.3v1.46a24,24,0,0,1-4,.8v13.48c0,5.28,2,8.63,7.71,8.63,4.92,0,7.18-3.14,7.18-8.63Z"/><path d="M127,236.38c3.06.53,3.63.85,3.63,2.3H119.82v-1.45a28.16,28.16,0,0,1,3.71-.81L122,214.88c-1.81,5.4-3.79,11.09-5.56,16.14-1.13,3.18-1.58,4.35-3.23,4.35h-1.7S107,222.46,104.36,215l-1.65,21.42a28.52,28.52,0,0,1,3.71.81v1.45h-10c0-1.45.57-1.77,3.64-2.3l1.73-21.91c-2.82-.52-3.27-.84-3.27-2.34h6.18c2.34,0,2.74.41,3.91,3.92l5.12,15.33,5.17-15.13c1.25-3.71,1.69-4.12,3.43-4.12h6.53c0,1.5-.44,1.82-3.27,2.34Z"/><path d="M151.65,212.13c5.65,0,7.67,2.59,7.67,6.14a6.39,6.39,0,0,1-4.32,6.09c3.59.56,6.13,2.54,6.13,6.45,0,5.65-4.4,7.87-9.44,7.87H139.63c0-1.49.52-1.81,3.51-2.34V214.47c-3-.52-3.51-.84-3.51-2.34Zm-4.88,2.18v9.52H151c3.35-.12,4.44-2.7,4.44-4.88,0-2.86-1.53-4.64-4.8-4.64Zm0,11.7v9.32c0,.81.32,1.17,1.17,1.17h3.51c3.15,0,5.73-1.69,5.73-5.48,0-3.15-2-5-5.73-5Z"/><path d="M186.75,229.44h-9.84l-2.3,7.06a31,31,0,0,1,3.75.73v1.45h-9.28c0-1.29.61-1.69,2.83-2.22l8.31-24.65h1.89c2.59,0,2.95,1.21,3.55,3l7.15,21.7c2.21.53,2.82.81,2.82,2.18H185.34v-1.45a32.58,32.58,0,0,1,3.75-.73Zm-9.12-2.18H186l-4.2-12.75Z"/><path d="M211.12,236.42a28.69,28.69,0,0,1,3.72.81v1.45h-11c0-1.45.61-1.77,3.63-2.3V214.47c-3-.52-3.51-.84-3.51-2.34h5c1.73,0,5.52-.12,6.69-.12,5.57,0,8.76,2.38,8.76,7,0,3-1.94,5.89-5.45,7.26l4.2,6.18c1.57,2.34,2.86,3.87,5,4.8v1.25a4.15,4.15,0,0,1-2.22.65c-1.89,0-3.11-.85-5.32-4.12l-5.33-7.91a16.48,16.48,0,0,1-4.2,0Zm0-22.23v10.73c7.91,1.17,9.36-2.82,9.36-5.6,0-3.47-2-5.25-5.89-5.25C213.79,214.07,212.05,214.07,211.12,214.19Z"/><path d="M238.28,214.31a20,20,0,0,1-1.29,4.24h-1.21a15,15,0,0,1-.93-4.52,5.9,5.9,0,0,1,.24-1.9h22.19a5.9,5.9,0,0,1,.24,1.9,15.35,15.35,0,0,1-.92,4.52h-1.21a20,20,0,0,1-1.3-4.24H248v22.15a26.2,26.2,0,0,1,3.55.69v1.53h-11c0-1.45.77-2,3.83-2.3V214.31Z"/><path d="M279.67,211.69c7.15,0,12.79,4.64,12.79,13.31,0,8.36-5.85,14.13-13.31,14.13-7.14,0-12.63-4.77-12.63-13.44C266.52,217.38,272.21,211.69,279.67,211.69Zm-.16,25.09c5.37,0,8.92-4.51,8.92-11.53s-3.71-11.26-9-11.26-8.87,4.4-8.87,11.46S274.23,236.78,279.51,236.78Z"/><path d="M305.9,214.47c-2.82-.52-3.27-.84-3.27-2.34H307a3.11,3.11,0,0,1,3,1.5l13.88,20.25V214.39a28.39,28.39,0,0,1-3.72-.8v-1.46h10c0,1.46-.57,1.78-3.63,2.3v20.14c0,2.21-.24,4.39-2.54,4.39h-.77l-14.69-21.14v18.6a29.36,29.36,0,0,1,3.76.81v1.45H302.27c0-1.45.57-1.77,3.63-2.3Z"/><path d="M368.68,211.69c7.14,0,12.79,4.64,12.79,13.31,0,8.36-5.85,14.13-13.31,14.13-7.14,0-12.63-4.77-12.63-13.44C355.53,217.38,361.22,211.69,368.68,211.69Zm-.16,25.09c5.37,0,8.92-4.51,8.92-11.53s-3.71-11.26-9-11.26-8.88,4.4-8.88,11.46S363.24,236.78,368.52,236.78Z"/><path d="M407.09,229.44h-9.84L395,236.5a31,31,0,0,1,3.75.73v1.45h-9.28c0-1.29.61-1.69,2.83-2.22l8.31-24.65h1.89c2.59,0,2.95,1.21,3.55,3l7.15,21.7c2.21.53,2.82.81,2.82,2.18H405.68v-1.45a32.58,32.58,0,0,1,3.75-.73ZM398,227.26h8.4l-4.2-12.75Z"/><path d="M431.46,224.84l10-10.53a23.9,23.9,0,0,1-2.94-.72v-1.46H448c0,1.46-.65,1.78-3.27,2.26l-9.44,9.77,7.54,8.87a13.76,13.76,0,0,0,5.09,4.2v1.25a3.94,3.94,0,0,1-2.3.65c-2.3,0-3.63-1.38-5.9-4.08l-8.27-9.84v11.21a28.33,28.33,0,0,1,3.72.81v1.45h-11c0-1.45.57-1.77,3.63-2.3V214.43c-3.06-.52-3.63-.84-3.63-2.3h10.65v1.46a24.85,24.85,0,0,1-3.39.8Z"/><path d="M467.09,211.73a30.31,30.31,0,0,1,6.66.65c.48,1.45.24,3.55-.69,6.21h-1.21a17,17,0,0,1-1.37-4.08,13.58,13.58,0,0,0-3.83-.52c-3.27,0-5.09,1.45-5.09,4,0,2.06,1.26,3.27,3.23,4.16,1.41.65,2.18.89,4,1.57,3.83,1.42,6.17,3.51,6.17,7.55,0,5.28-3.75,7.83-9.32,7.83a16,16,0,0,1-8.19-2,10.5,10.5,0,0,1,1-6.38h1.25a17.55,17.55,0,0,1,1.21,4.72,9.42,9.42,0,0,0,5,1.33c3.43,0,5.49-1.81,5.49-4.59s-1.62-4-3.87-4.89a53.82,53.82,0,0,1-5.29-2.18,7,7,0,0,1-4.15-6.65C458.1,214.39,461,211.73,467.09,211.73Z"/><path d="M78.38,283.57H72.49L70.72,288H69.8L75.45,274h.07L81.17,288h-1ZM78,282.7l-2.58-6.57-2.63,6.57Z"/><path d="M94.58,288l-3.51-5.69a5.38,5.38,0,0,1-1,.08H88V288h-.92V274.62h3a5.09,5.09,0,0,1,2,.42,3.67,3.67,0,0,1,1.58,1.26,3.56,3.56,0,0,1,.61,2.11,4.36,4.36,0,0,1-.57,2.21A3.24,3.24,0,0,1,92,282.06L95.65,288Zm-2-7.4a3.18,3.18,0,0,0,.78-2.15A2.94,2.94,0,0,0,93,277a2.83,2.83,0,0,0-1.1-1.07,3.42,3.42,0,0,0-1.66-.39H88v6h2A3.31,3.31,0,0,0,92.63,280.59Z"/><path d="M109.41,274.62v.89h-3.93V288h-.93V275.51h-3.89v-.89Z"/><path d="M161.06,274.62v13.69h0l-10.3-11.6,0,11.28h-.9V274.34h0L160.19,286V274.62Z"/><path d="M175.56,283.57h-5.9L167.9,288H167L172.62,274h.08L178.34,288h-1Zm-.34-.87-2.58-6.57L170,282.7Z"/><path d="M190.94,274.62v.89H187V288h-.93V275.51h-3.89v-.89Z"/><path d="M198.27,285.48a3.18,3.18,0,0,0,1.31,1.31,3.78,3.78,0,0,0,1.89.47,3.89,3.89,0,0,0,1.91-.47,3.26,3.26,0,0,0,1.32-1.31,4.07,4.07,0,0,0,.48-2v-8.85h.9v8.91a4.82,4.82,0,0,1-.6,2.46,4.1,4.1,0,0,1-1.65,1.6,5.32,5.32,0,0,1-4.71,0,4.14,4.14,0,0,1-1.64-1.6,4.73,4.73,0,0,1-.61-2.46v-8.91h.93v8.85A4.06,4.06,0,0,0,198.27,285.48Z"/><path d="M220.58,288l-3.5-5.69a5.53,5.53,0,0,1-1,.08H214V288h-.93V274.62h3a5.06,5.06,0,0,1,2,.42,3.62,3.62,0,0,1,1.58,1.26,3.49,3.49,0,0,1,.61,2.11,4.45,4.45,0,0,1-.56,2.21,3.28,3.28,0,0,1-1.75,1.44l3.61,5.93Zm-2-7.4a3.18,3.18,0,0,0,.78-2.15A3,3,0,0,0,219,277a2.86,2.86,0,0,0-1.11-1.07,3.38,3.38,0,0,0-1.65-.39H214v6h2A3.3,3.3,0,0,0,218.63,280.59Z"/><path d="M236.08,274.62v.89h-7.33v5.31h6.59v.88h-6.59v5.4h7.59V288h-8.51V274.62Z"/><path d="M282.28,275.58a6.13,6.13,0,0,0-1.62-.22,3.19,3.19,0,0,0-2.11.65,2.06,2.06,0,0,0-.79,1.66,1.8,1.8,0,0,0,.43,1.22,3.36,3.36,0,0,0,1.08.82,17.93,17.93,0,0,0,1.69.73,12.14,12.14,0,0,1,1.88.85,4,4,0,0,1,1.25,1.17,3.33,3.33,0,0,1,.51,1.91,3.67,3.67,0,0,1-.53,2,3.48,3.48,0,0,1-1.48,1.33,4.88,4.88,0,0,1-2.17.47,7.65,7.65,0,0,1-4.22-1.37l.43-.76a7.49,7.49,0,0,0,1.72.93,5.44,5.44,0,0,0,2,.39,4,4,0,0,0,1.61-.33,2.92,2.92,0,0,0,1.25-1,2.67,2.67,0,0,0,.48-1.61,2.39,2.39,0,0,0-.45-1.48,3.25,3.25,0,0,0-1.11-1,11.46,11.46,0,0,0-1.68-.75,14.72,14.72,0,0,1-1.87-.8,3.7,3.7,0,0,1-1.23-1,2.55,2.55,0,0,1-.5-1.6,3,3,0,0,1,.48-1.67,3.24,3.24,0,0,1,1.34-1.13,4.57,4.57,0,0,1,1.91-.42,7.74,7.74,0,0,1,1.87.24,8.54,8.54,0,0,1,1.73.62l-.36.72A8.62,8.62,0,0,0,282.28,275.58Z"/><path d="M298.81,287.85a6.61,6.61,0,0,1-2,.29,6.93,6.93,0,0,1-3.56-.9,6.41,6.41,0,0,1-2.4-2.45,6.89,6.89,0,0,1-.86-3.39,7,7,0,0,1,.89-3.52,6.53,6.53,0,0,1,2.42-2.5,6.71,6.71,0,0,1,3.43-.91,6.86,6.86,0,0,1,3.65,1l-.39.84a6.13,6.13,0,0,0-3.24-1,5.49,5.49,0,0,0-2.9.8,5.84,5.84,0,0,0-2.12,2.18,6,6,0,0,0-.78,3,6.21,6.21,0,0,0,.72,3,5.36,5.36,0,0,0,2,2.14,5.87,5.87,0,0,0,3,.79,6,6,0,0,0,3.26-1l.43.8A7.22,7.22,0,0,1,298.81,287.85Z"/><path d="M316.61,288h-.93V281.7h-8.05V288h-.93V274.62h.93v6.21h8.05v-6.21h.93Z"/><path d="M323.76,277.91a7,7,0,0,1,2.49-2.51,6.74,6.74,0,0,1,6.83,0,6.94,6.94,0,0,1,2.51,2.51,6.8,6.8,0,0,1,0,6.83,6.81,6.81,0,0,1-2.51,2.49,6.69,6.69,0,0,1-3.42.91,6.82,6.82,0,0,1-3.43-.88,6.63,6.63,0,0,1-2.48-2.45,6.76,6.76,0,0,1-.91-3.49A6.69,6.69,0,0,1,323.76,277.91Zm.81,6.39a6.12,6.12,0,0,0,2.13,2.16,5.64,5.64,0,0,0,2.94.8,5.9,5.9,0,0,0,5.93-5.94,5.81,5.81,0,0,0-.8-3,6.07,6.07,0,0,0-2.16-2.17,5.65,5.65,0,0,0-2.95-.81,5.73,5.73,0,0,0-3,.81,6,6,0,0,0-2.9,5.17A5.73,5.73,0,0,0,324.57,284.3Z"/><path d="M343.66,274.62V287.1H351V288h-8.25V274.62Z"/><path d="M364.34,283.57h-5.89L356.68,288h-.93L361.4,274h.08L367.13,288h-1Zm-.34-.87-2.58-6.57-2.63,6.57Z"/><path d="M380.53,288,377,282.3a5.45,5.45,0,0,1-1,.08H374V288H373V274.62h3a5,5,0,0,1,2,.42,3.56,3.56,0,0,1,1.58,1.26,3.49,3.49,0,0,1,.62,2.11,4.36,4.36,0,0,1-.57,2.21,3.24,3.24,0,0,1-1.75,1.44l3.62,5.93Zm-1.95-7.4a3.19,3.19,0,0,0,.79-2.15A2.94,2.94,0,0,0,379,277a2.9,2.9,0,0,0-1.1-1.07,3.42,3.42,0,0,0-1.66-.39H374v6h2A3.29,3.29,0,0,0,378.58,280.59Z"/><path d="M393,275.58a6.13,6.13,0,0,0-1.62-.22,3.19,3.19,0,0,0-2.11.65,2,2,0,0,0-.79,1.66,1.8,1.8,0,0,0,.43,1.22,3.36,3.36,0,0,0,1.08.82,17.93,17.93,0,0,0,1.69.73,12.14,12.14,0,0,1,1.88.85,4,4,0,0,1,1.25,1.17,3.33,3.33,0,0,1,.51,1.91,3.67,3.67,0,0,1-.53,2,3.54,3.54,0,0,1-1.48,1.33,4.88,4.88,0,0,1-2.17.47,7.65,7.65,0,0,1-4.22-1.37l.43-.76a7.49,7.49,0,0,0,1.72.93,5.44,5.44,0,0,0,2,.39,4,4,0,0,0,1.61-.33,2.83,2.83,0,0,0,1.24-1,2.61,2.61,0,0,0,.49-1.61,2.39,2.39,0,0,0-.45-1.48,3.25,3.25,0,0,0-1.11-1,12,12,0,0,0-1.68-.75,14.11,14.11,0,0,1-1.87-.8,3.7,3.7,0,0,1-1.23-1,2.55,2.55,0,0,1-.5-1.6,3,3,0,0,1,.48-1.67,3.24,3.24,0,0,1,1.34-1.13,4.57,4.57,0,0,1,1.91-.42,7.74,7.74,0,0,1,1.87.24,8.54,8.54,0,0,1,1.73.62l-.36.72A8.93,8.93,0,0,0,393,275.58Z"/><path d="M411.45,288h-.92V281.7h-8.06V288h-.92V274.62h.92v6.21h8.06v-6.21h.92Z"/><path d="M419.45,274.62V288h-.92V274.62Z"/><path d="M432.64,275.59a3.53,3.53,0,0,1,1.12,2.82,4.3,4.3,0,0,1-.45,1.95,3.45,3.45,0,0,1-1.4,1.46,4.68,4.68,0,0,1-2.38.56h-2.08V288h-.92V274.62h3.09A4.47,4.47,0,0,1,432.64,275.59ZM431.48,281a2.7,2.7,0,0,0,1.07-1.19,3.41,3.41,0,0,0,.31-1.4,2.79,2.79,0,0,0-.83-2.1,3.16,3.16,0,0,0-2.32-.8h-2.26v6h2.08A3.48,3.48,0,0,0,431.48,281Z"/><circle cx="129.74" cy="281.77" r="2.69"/><circle cx="258.17" cy="281.77" r="2.69"/></svg>