<?xml version="1.0" encoding="utf-8"?>
<!-- Generator: Adobe Illustrator 25.2.0, SVG Export Plug-In . SVG Version: 6.00 Build 0)  -->
<svg version="1.1" id="Layer_1" xmlns="http://www.w3.org/2000/svg" xmlns:xlink="http://www.w3.org/1999/xlink" x="0px" y="0px"
	 viewBox="0 0 500 96" style="enable-background:new 0 0 500 96;" xml:space="preserve">
<path d="M37.5,10.1c8,0,13.6,4.2,13.6,12.6c0,8.1-4.9,13.9-13.7,13.9H25c0-1.5,0.5-1.8,3.5-2.3V12.5c-3-0.5-3.5-0.8-3.5-2.3
	L37.5,10.1L37.5,10.1z M32.1,12.3v21c0,0.9,0.3,1.2,1.2,1.2h3.4c7.7,0,10.4-4.6,10.4-11.6c0-6.1-3.1-10.6-10.3-10.6L32.1,12.3z"/>
<path d="M82.1,12.4c-1.4-0.2-2.7-0.4-4-0.8v-1.5h10.5c0,1.5-0.6,1.8-3.6,2.3v13.7c0,6.7-4,11-10.3,11c-6.9,0-11-3.1-11-11V12.4
	c-3.1-0.5-3.6-0.8-3.6-2.3h11.3v1.5c-1.3,0.4-2.6,0.6-4,0.8v13.5c0,5.3,2,8.6,7.7,8.6c4.9,0,7.2-3.1,7.2-8.6L82.1,12.4z"/>
<path d="M127,34.4c3.1,0.5,3.6,0.9,3.6,2.3h-10.8v-1.4c1.2-0.4,2.5-0.6,3.7-0.8L122,12.9c-1.8,5.4-3.8,11.1-5.6,16.1
	c-1.1,3.2-1.6,4.4-3.2,4.4h-1.7c0,0-4.5-12.9-7.2-20.4l-1.7,21.4c1.3,0.2,2.5,0.5,3.7,0.8v1.4h-10c0-1.4,0.6-1.8,3.6-2.3l1.7-21.9
	c-2.8-0.5-3.3-0.8-3.3-2.3h6.2c2.3,0,2.7,0.4,3.9,3.9l5.1,15.3l5.2-15.1c1.2-3.7,1.7-4.1,3.4-4.1h6.5c0,1.5-0.4,1.8-3.3,2.3
	L127,34.4z"/>
<path d="M151.6,10.1c5.6,0,7.7,2.6,7.7,6.1c0,2.7-1.7,5.2-4.3,6.1c3.6,0.6,6.1,2.5,6.1,6.4c0,5.6-4.4,7.9-9.4,7.9h-12.1
	c0-1.5,0.5-1.8,3.5-2.3V12.5c-3-0.5-3.5-0.8-3.5-2.3L151.6,10.1L151.6,10.1z M146.8,12.3v9.5h4.2c3.4-0.1,4.4-2.7,4.4-4.9
	c0-2.9-1.5-4.6-4.8-4.6C150.6,12.3,146.8,12.3,146.8,12.3z M146.8,24v9.3c0,0.8,0.3,1.2,1.2,1.2h3.5c3.1,0,5.7-1.7,5.7-5.5
	c0-3.1-2-5-5.7-5H146.8z"/>
<path d="M186.8,27.4H177l-2.3,7.1c1.3,0.2,2.5,0.4,3.8,0.7v1.4h-9.3c0-1.3,0.6-1.7,2.8-2.2l8.3-24.6h1.9c2.6,0,2.9,1.2,3.6,3
	l7.1,21.7c2.2,0.5,2.8,0.8,2.8,2.2h-10.3v-1.4c1.2-0.3,2.5-0.6,3.8-0.7L186.8,27.4z M177.6,25.3h8.4l-4.2-12.8L177.6,25.3z"/>
<path d="M211.1,34.4c1.3,0.2,2.5,0.5,3.7,0.8v1.4h-11c0-1.4,0.6-1.8,3.6-2.3V12.5c-3-0.5-3.5-0.8-3.5-2.3h5c1.7,0,5.5-0.1,6.7-0.1
	c5.6,0,8.8,2.4,8.8,7c0,3-1.9,5.9-5.4,7.3l4.2,6.2c1.6,2.3,2.9,3.9,5,4.8v1.2c-0.7,0.4-1.4,0.6-2.2,0.6c-1.9,0-3.1-0.9-5.3-4.1
	l-5.3-7.9c-1.4,0.2-2.8,0.2-4.2,0L211.1,34.4z M211.1,12.2v10.7c7.9,1.2,9.4-2.8,9.4-5.6c0-3.5-2-5.2-5.9-5.2
	C213.8,12.1,212.1,12.1,211.1,12.2z"/>
<path d="M238.3,12.3c-0.3,1.5-0.7,2.9-1.3,4.2h-1.2c-0.5-1.4-0.9-3-0.9-4.5c0-0.6,0.1-1.3,0.2-1.9h22.2c0.2,0.6,0.3,1.3,0.2,1.9
	c-0.1,1.5-0.4,3.1-0.9,4.5h-1.2c-0.6-1.4-1-2.8-1.3-4.2H248v22.1c1.2,0.1,2.4,0.4,3.6,0.7v1.5h-11c0-1.4,0.8-2,3.8-2.3v-22H238.3z"
	/>
<path d="M279.7,9.7c7.1,0,12.8,4.6,12.8,13.3c0,8.4-5.9,14.1-13.3,14.1c-7.1,0-12.6-4.8-12.6-13.4C266.5,15.4,272.2,9.7,279.7,9.7z
	 M279.5,34.8c5.4,0,8.9-4.5,8.9-11.5s-3.7-11.3-9-11.3s-8.9,4.4-8.9,11.5S274.2,34.8,279.5,34.8z"/>
<path d="M305.9,12.5c-2.8-0.5-3.3-0.8-3.3-2.3h4.4c1.2-0.1,2.4,0.5,3,1.5l13.9,20.2V12.4c-1.3-0.2-2.5-0.5-3.7-0.8v-1.5h10
	c0,1.5-0.6,1.8-3.6,2.3v20.1c0,2.2-0.2,4.4-2.5,4.4h-0.8l-14.7-21.1v18.6c1.3,0.2,2.5,0.5,3.8,0.8v1.4h-10c0-1.4,0.6-1.8,3.6-2.3
	L305.9,12.5L305.9,12.5z"/>
<path d="M368.7,9.7c7.1,0,12.8,4.6,12.8,13.3c0,8.4-5.9,14.1-13.3,14.1c-7.1,0-12.6-4.8-12.6-13.4C355.5,15.4,361.2,9.7,368.7,9.7z
	 M368.5,34.8c5.4,0,8.9-4.5,8.9-11.5s-3.7-11.3-9-11.3s-8.9,4.4-8.9,11.5S363.2,34.8,368.5,34.8z"/>
<path d="M407.1,27.4h-9.8l-2.2,7.1c1.3,0.2,2.5,0.4,3.8,0.7v1.4h-9.3c0-1.3,0.6-1.7,2.8-2.2l8.3-24.6h1.9c2.6,0,3,1.2,3.5,3
	l7.1,21.7c2.2,0.5,2.8,0.8,2.8,2.2h-10.3v-1.4c1.2-0.3,2.5-0.6,3.8-0.7L407.1,27.4z M398,25.3h8.4l-4.2-12.8L398,25.3z"/>
<path d="M431.5,22.8l10-10.5c-1-0.2-2-0.4-2.9-0.7v-1.5h9.5c0,1.5-0.6,1.8-3.3,2.3l-9.4,9.8l7.5,8.9c1.3,1.8,3.1,3.2,5.1,4.2v1.2
	c-0.7,0.4-1.5,0.7-2.3,0.6c-2.3,0-3.6-1.4-5.9-4.1l-8.3-9.8v11.2c1.3,0.2,2.5,0.5,3.7,0.8v1.4h-11c0-1.4,0.6-1.8,3.6-2.3V12.4
	c-3.1-0.5-3.6-0.8-3.6-2.3h10.6v1.5c-1.1,0.3-2.2,0.6-3.4,0.8L431.5,22.8z"/>
<path d="M467.1,9.7c2.2,0,4.5,0.2,6.7,0.6c0.5,1.4,0.2,3.6-0.7,6.2h-1.2c-0.6-1.3-1.1-2.7-1.4-4.1c-1.2-0.4-2.5-0.5-3.8-0.5
	c-3.3,0-5.1,1.4-5.1,4c0,2.1,1.3,3.3,3.2,4.2c1.4,0.6,2.2,0.9,4,1.6c3.8,1.4,6.2,3.5,6.2,7.6c0,5.3-3.8,7.8-9.3,7.8
	c-2.9,0.1-5.7-0.6-8.2-2c-0.3-2.2,0-4.4,1-6.4h1.2c0.6,1.5,1,3.1,1.2,4.7c1.5,0.9,3.2,1.4,5,1.3c3.4,0,5.5-1.8,5.5-4.6
	s-1.6-4-3.9-4.9c-1.8-0.6-3.6-1.4-5.3-2.2c-2.6-1.2-4.3-3.8-4.1-6.6C458.1,12.4,461,9.7,467.1,9.7z"/>
<path d="M78.4,81.6h-5.9L70.7,86h-0.9l5.6-14h0.1l5.7,14h-1L78.4,81.6z M78,80.7l-2.6-6.6l-2.6,6.6H78z"/>
<path d="M94.6,86l-3.5-5.7c-0.3,0.1-0.7,0.1-1,0.1H88V86h-0.9V72.6h3c0.7,0,1.4,0.1,2,0.4s1.2,0.7,1.6,1.3c0.4,0.6,0.6,1.4,0.6,2.1
	c0,0.8-0.2,1.5-0.6,2.2s-1,1.2-1.7,1.4l3.7,5.9L94.6,86L94.6,86z M92.6,78.6c0.5-0.6,0.8-1.4,0.8-2.1c0-0.5-0.1-1-0.4-1.5
	s-0.6-0.8-1.1-1.1c-0.5-0.3-1.1-0.4-1.7-0.4H88v6h2C91,79.6,91.9,79.3,92.6,78.6L92.6,78.6z"/>
<path d="M109.4,72.6v0.9h-3.9V86h-0.9V73.5h-3.9v-0.9H109.4z"/>
<path d="M161.1,72.6v13.7l0,0l-10.3-11.6V86h-0.9V72.3l0,0L160.2,84V72.6H161.1z"/>
<path d="M175.6,81.6h-5.9l-1.8,4.4H167l5.6-14h0.1l5.6,14h-1L175.6,81.6z M175.2,80.7l-2.6-6.6l-2.6,6.6H175.2z"/>
<path d="M190.9,72.6v0.9H187V86h-0.9V73.5h-3.9v-0.9H190.9z"/>
<path d="M198.3,83.5c0.3,0.6,0.8,1,1.3,1.3c0.6,0.3,1.2,0.5,1.9,0.5s1.3-0.2,1.9-0.5c0.6-0.3,1-0.8,1.3-1.3c0.3-0.6,0.5-1.3,0.5-2
	v-8.9h0.9v8.9c0,0.9-0.2,1.7-0.6,2.5c-0.4,0.7-1,1.2-1.6,1.6c-1.5,0.7-3.2,0.7-4.7,0c-0.7-0.4-1.3-0.9-1.6-1.6
	c-0.4-0.7-0.6-1.6-0.6-2.5v-8.9h0.9v8.9C197.8,82.2,197.9,82.9,198.3,83.5z"/>
<path d="M220.6,86l-3.5-5.7c-0.3,0.1-0.7,0.1-1,0.1H214V86h-0.9V72.6h3c0.7,0,1.4,0.1,2,0.4s1.2,0.7,1.6,1.3
	c0.4,0.6,0.6,1.4,0.6,2.1c0,0.8-0.2,1.5-0.6,2.2c-0.4,0.7-1,1.2-1.8,1.4l3.6,5.9L220.6,86z M218.6,78.6c0.5-0.6,0.8-1.4,0.8-2.1
	c0-0.5-0.1-1-0.4-1.5c-0.3-0.5-0.6-0.8-1.1-1.1c-0.5-0.3-1.1-0.4-1.6-0.4H214v6h2C217,79.6,217.9,79.3,218.6,78.6L218.6,78.6z"/>
<path d="M236.1,72.6v0.9h-7.3v5.3h6.6v0.9h-6.6v5.4h7.6V86h-8.5V72.6H236.1z"/>
<path d="M282.3,73.6c-0.5-0.1-1.1-0.2-1.6-0.2c-0.8,0-1.5,0.2-2.1,0.6c-0.5,0.4-0.8,1-0.8,1.7c0,0.4,0.1,0.9,0.4,1.2
	c0.3,0.3,0.7,0.6,1.1,0.8c0.6,0.3,1.1,0.5,1.7,0.7s1.3,0.5,1.9,0.9c0.5,0.3,0.9,0.7,1.2,1.2c0.4,0.6,0.5,1.2,0.5,1.9
	c0,0.7-0.2,1.4-0.5,2c-0.4,0.6-0.9,1-1.5,1.3c-0.7,0.3-1.4,0.5-2.2,0.5c-1.5,0-3-0.5-4.2-1.4l0.4-0.8c0.5,0.4,1.1,0.7,1.7,0.9
	c0.6,0.3,1.3,0.4,2,0.4c0.6,0,1.1-0.1,1.6-0.3c0.5-0.2,0.9-0.6,1.2-1c0.3-0.5,0.5-1,0.5-1.6c0-0.5-0.1-1.1-0.5-1.5
	c-0.3-0.4-0.7-0.8-1.1-1c-0.5-0.3-1.1-0.5-1.7-0.8c-0.6-0.2-1.3-0.5-1.9-0.8c-0.5-0.2-0.9-0.6-1.2-1c-0.3-0.5-0.5-1-0.5-1.6
	s0.2-1.2,0.5-1.7s0.8-0.9,1.3-1.1c0.6-0.3,1.3-0.4,1.9-0.4s1.3,0.1,1.9,0.2s1.2,0.4,1.7,0.6l-0.4,0.7
	C283.3,73.9,282.8,73.7,282.3,73.6z"/>
<path d="M298.8,85.9c-0.6,0.2-1.3,0.3-2,0.3c-1.2,0-2.5-0.3-3.6-0.9c-1-0.6-1.8-1.4-2.4-2.5c-0.6-1-0.9-2.2-0.9-3.4
	c0-1.2,0.3-2.4,0.9-3.5c0.6-1,1.4-1.9,2.4-2.5s2.2-0.9,3.4-0.9c1.3,0,2.6,0.3,3.6,1l-0.4,0.8c-1-0.6-2.1-1-3.2-1c-1,0-2,0.3-2.9,0.8
	s-1.6,1.3-2.1,2.2c-0.5,0.9-0.8,1.9-0.8,3c0,1,0.2,2.1,0.7,3s1.1,1.6,2,2.1s1.9,0.8,3,0.8c1.2,0,2.3-0.4,3.3-1l0.4,0.8
	C299.9,85.4,299.4,85.6,298.8,85.9z"/>
<path d="M316.6,86h-0.9v-6.3h-8V86h-0.9V72.6h0.9v6.2h8v-6.2h0.9V86z"/>
<path d="M323.8,75.9c0.6-1,1.5-1.9,2.5-2.5c2.1-1.2,4.7-1.2,6.8,0c1,0.6,1.9,1.5,2.5,2.5c1.2,2.1,1.2,4.7,0,6.8
	c-0.6,1-1.5,1.9-2.5,2.5s-2.2,0.9-3.4,0.9c-1.2,0-2.4-0.3-3.4-0.9s-1.9-1.4-2.5-2.5s-0.9-2.3-0.9-3.5
	C322.8,78.1,323.2,76.9,323.8,75.9z M324.6,82.3c0.5,0.9,1.2,1.6,2.1,2.2c0.9,0.5,1.9,0.8,2.9,0.8c3.3,0,5.9-2.6,5.9-5.9
	c0,0,0,0,0-0.1c0-1.1-0.3-2.1-0.8-3s-1.3-1.6-2.2-2.2c-0.9-0.5-1.9-0.8-3-0.8s-2.1,0.3-3,0.8c-1.8,1.1-2.9,3.1-2.9,5.2
	C323.8,80.4,324,81.4,324.6,82.3L324.6,82.3z"/>
<path d="M343.7,72.6v12.5h7.3V86h-8.2V72.6H343.7z"/>
<path d="M364.3,81.6h-5.9l-1.8,4.4h-0.9l5.6-14h0.1l5.7,14h-1L364.3,81.6z M364,80.7l-2.6-6.6l-2.6,6.6H364z"/>
<path d="M380.5,86l-3.5-5.7c-0.3,0.1-0.7,0.1-1,0.1h-2V86h-1V72.6h3c0.7,0,1.4,0.1,2,0.4s1.2,0.7,1.6,1.3c0.4,0.6,0.6,1.4,0.6,2.1
	c0,0.8-0.2,1.5-0.6,2.2s-1,1.2-1.8,1.4l3.6,5.9L380.5,86z M378.6,78.6c0.5-0.6,0.8-1.4,0.8-2.1c0-0.5-0.1-1-0.4-1.5
	c-0.3-0.4-0.6-0.8-1.1-1.1c-0.5-0.3-1.1-0.4-1.7-0.4H374v6h2C377,79.6,377.9,79.3,378.6,78.6L378.6,78.6z"/>
<path d="M393,73.6c-0.5-0.1-1.1-0.2-1.6-0.2c-0.8,0-1.5,0.2-2.1,0.6c-0.5,0.4-0.8,1-0.8,1.7c0,0.4,0.1,0.9,0.4,1.2
	c0.3,0.3,0.7,0.6,1.1,0.8c0.6,0.3,1.1,0.5,1.7,0.7s1.3,0.5,1.9,0.9c0.5,0.3,0.9,0.7,1.2,1.2c0.4,0.6,0.5,1.2,0.5,1.9
	c0,0.7-0.2,1.4-0.5,2c-0.4,0.6-0.9,1-1.5,1.3c-0.7,0.3-1.4,0.5-2.2,0.5c-1.5,0-3-0.5-4.2-1.4l0.4-0.8c0.5,0.4,1.1,0.7,1.7,0.9
	c0.6,0.3,1.3,0.4,2,0.4c0.6,0,1.1-0.1,1.6-0.3c0.5-0.2,0.9-0.6,1.2-1c0.3-0.5,0.5-1,0.5-1.6c0-0.5-0.1-1.1-0.5-1.5
	c-0.3-0.4-0.7-0.8-1.1-1c-0.5-0.3-1.1-0.5-1.7-0.8c-0.6-0.2-1.3-0.5-1.9-0.8c-0.5-0.2-0.9-0.6-1.2-1c-0.3-0.5-0.5-1-0.5-1.6
	s0.2-1.2,0.5-1.7s0.8-0.9,1.3-1.1c0.6-0.3,1.3-0.4,1.9-0.4s1.3,0.1,1.9,0.2s1.2,0.4,1.7,0.6l-0.4,0.7C394,73.9,393.5,73.7,393,73.6z
	"/>
<path d="M411.5,86h-0.9v-6.3h-8.1V86h-0.9V72.6h0.9v6.2h8.1v-6.2h0.9V86z"/>
<path d="M419.5,72.6V86h-0.9V72.6H419.5z"/>
<path d="M432.6,73.6c0.8,0.7,1.2,1.8,1.1,2.8c0,0.7-0.1,1.3-0.5,2c-0.3,0.6-0.8,1.1-1.4,1.5c-0.7,0.4-1.6,0.6-2.4,0.6h-2.1V86h-0.9
	V72.6h3.1C430.7,72.6,431.8,72.9,432.6,73.6z M431.5,79c0.5-0.3,0.8-0.7,1.1-1.2c0.2-0.4,0.3-0.9,0.3-1.4c0-0.8-0.3-1.5-0.8-2.1
	c-0.6-0.6-1.5-0.9-2.3-0.8h-2.3v6h2.1C430.2,79.5,430.9,79.4,431.5,79z"/>
<circle cx="129.7" cy="79.8" r="2.7"/>
<ellipse transform="matrix(0.1602 -0.9871 0.9871 0.1602 138.0714 321.8835)" cx="258.2" cy="79.8" rx="2.7" ry="2.7"/>
</svg>
