<svg id="Layer_1" data-name="Layer 1" xmlns="http://www.w3.org/2000/svg" viewBox="0 0 80 100"><defs><style>.cls-1{fill:#fff;}</style></defs><path class="cls-1" d="M17.08,46.62c5.28,6.14,11.85,5.08,15.33,4.87-4.64-2.64-10.23-8.23-13.71-15.61,2.74,2.63,5,5.8,7,7.49a18.44,18.44,0,0,1-1-13.34,26.72,26.72,0,0,0-15-2.49,54.59,54.59,0,0,1,1.79,6.12C12.47,37.56,13.18,42.1,17.08,46.62Z"/><path class="cls-1" d="M52.11,43.08A56.06,56.06,0,0,0,59,35.28c-2.43,6.54-9.07,14-14,16.56,26.9-.85,18.35-25,18.35-25A27.32,27.32,0,0,1,58,29.58a38.37,38.37,0,0,0-4.33,2A21.62,21.62,0,0,1,52.11,43.08Z"/><circle class="cls-1" cx="4.06" cy="69.99" r="2.42"/><path class="cls-1" d="M9.12,80.1a2.42,2.42,0,1,0,2.41,2.42A2.42,2.42,0,0,0,9.12,80.1Z"/><path class="cls-1" d="M21.57,80A2.42,2.42,0,1,0,24,82.38,2.42,2.42,0,0,0,21.57,80Z"/><circle class="cls-1" cx="35.8" cy="91.2" r="2.42"/><circle class="cls-1" cx="46.69" cy="89" r="2.42"/><path class="cls-1" d="M51.17,77.7a2.42,2.42,0,1,0,2.42,2.42A2.42,2.42,0,0,0,51.17,77.7Z"/><circle class="cls-1" cx="59.21" cy="88.57" r="2.42"/><path class="cls-1" d="M71,77.11a2.42,2.42,0,1,0,2.42,2.42A2.42,2.42,0,0,0,71,77.11Z"/><path class="cls-1" d="M75.94,69.57A2.42,2.42,0,1,0,78.36,72,2.42,2.42,0,0,0,75.94,69.57Z"/><path class="cls-1" d="M67.57,75.5c-.24-.29-.43-.63-.69-1a4,4,0,0,1-.42-2.22,3.07,3.07,0,0,0-.43-2,7.57,7.57,0,0,0-1.56-1.21,2.76,2.76,0,0,1-1-.8,8,8,0,0,1,3.1-.63,12.83,12.83,0,0,1,3.55.32,6,6,0,0,1,1.7.7,5.23,5.23,0,0,1,1-.92,9.58,9.58,0,0,0-1.5-.73A15,15,0,0,0,63.4,66a8.88,8.88,0,0,1-3.91-.84c-.84-.32-1.89-.74-3.37-1.27a36.9,36.9,0,0,0-5.38-1.68A14.62,14.62,0,0,1,46,60.28,10.67,10.67,0,0,1,43.46,58c-.42-.85-.84-1.8-1.05-2.32-.53-1.27-1.48-2.54-1.9-3.38a23.77,23.77,0,0,0,5.59-3.8,16.39,16.39,0,0,0,5-8,25.12,25.12,0,0,0,.74-6.86,26.94,26.94,0,0,0-1.59-7.7C47.15,18.4,39.67,10.39,35.45,6.38a33.34,33.34,0,0,1-2.54,9.05c-.88,2.36-2.82,6.24-3.58,7.83a30.62,30.62,0,0,0-3.38,12,18.54,18.54,0,0,0,1.63,8.13,13.25,13.25,0,0,0,3.9,4.85,26.81,26.81,0,0,0,3.46,2.51,54.28,54.28,0,0,1,2.83-14,34.48,34.48,0,0,0,2.11-14c2.11,6.12.73,13.08-.64,17.3a46.49,46.49,0,0,0-2.11,11.49,8.61,8.61,0,0,1-.52,3.38C36.18,56,35.24,56.58,34,58c0,0-1.9,1.37-3.06,2.32a14.37,14.37,0,0,1-5,3.37,32.75,32.75,0,0,1-3.79.74c.42-.11-3,.42-4.54.42-1.05.11-2.11.11-3.06.21A13.85,13.85,0,0,0,9.5,66.5,11.33,11.33,0,0,0,8.4,67,5.07,5.07,0,0,1,9,68.24,4.18,4.18,0,0,1,9.79,68l.27,0a41.61,41.61,0,0,1,4.71-.75c1.37,0,4.12.31,4.12,2.42A4.23,4.23,0,0,1,16,73.36a7.28,7.28,0,0,0-1.16.42c-1.58.42-3.38,1-4,2.53-.12.36-.28.73-.43,1.12a5.23,5.23,0,0,1,1.29.53,7.67,7.67,0,0,1,1.46-1.44,7.06,7.06,0,0,1,3.38-1.06c1.05-.1,2.11-.21,2.63-.94,1.16-1.38,2-1.8,2.85-1.69a2,2,0,0,1,1.58,2.42,15.54,15.54,0,0,1-.52,1.8l-.09.27a5,5,0,0,1,1.18.51c.06-.09.12-.17.17-.26l.21-.31c1.06-1.69,1.06-3.17.74-3.8-.1-.21-.21-.32-.32-.53a5.87,5.87,0,0,1-1.16-3.79c.22-2,1.9-2.43,3.59-2.54A12.67,12.67,0,0,1,31,67c.31.1.52.1.84.21,1.27.21,1.9.74,1.58,3.69a46.3,46.3,0,0,1-1,5.91c-.32,1.47-.53,2.63-.64,3.37-.1,1.58,1.06,3.9,1.8,5.06.13.26.29.59.47,1a5.46,5.46,0,0,1,1.72-.31,3.89,3.89,0,0,0-.5-1.4c-1.38-2.22-1.48-5.38-.53-5.7s1.47.21,3.37,2.43c0,0,.64.73.85,1a33.63,33.63,0,0,0,3.56,3.62,4.94,4.94,0,0,1,1.1-1.09c-.21-.26-.42-.5-.65-.74A8.94,8.94,0,0,1,42.09,83c-.42-.52-.84-1.16-1.37-1.9a14.94,14.94,0,0,0-2.43-3C37,77.15,37,75.25,37,74.2v-.32c0-.95.1-3.48.63-4.22.11-.1.11-.21.21-.31.21-.42.42-.74,2.64-2.43,2.85-2.11,4.64-1,5.06-.1s.11,3-.63,4.43a2.87,2.87,0,0,0,.42,2.63,13.17,13.17,0,0,0,1.83,2.8,5.33,5.33,0,0,1,1.34-1.11,11.67,11.67,0,0,0-.73-1.21,4.37,4.37,0,0,1-.85-2.6c.11-1.05,1.26-1.46,2.31-.83.43.32,1,.74,1.48,1.16a19.77,19.77,0,0,0,2.43,1.79c1.37.85,4.22,3.17,4.85,5.38a27.23,27.23,0,0,1,.79,4.06l.4,0a4.86,4.86,0,0,1,1.09.12,14.46,14.46,0,0,0,0-4.45,7.52,7.52,0,0,0-3-4.67c-.63-.52-1.48-1-2.43-1.68A17,17,0,0,1,51.37,70a2.44,2.44,0,0,1,.21-3.27c.32-.32,1.59-1,4,.21,1.58.85,2.53,1.27,3.48,1.69.42.21.85.42,1.37.63a6.46,6.46,0,0,0,1.48.53,4,4,0,0,1,2.64,1.58A5.13,5.13,0,0,1,65,73.46a3.25,3.25,0,0,0,.63,2.22c.3.29.64.64,1,.93A5.25,5.25,0,0,1,67.57,75.5Z"/></svg>